<svg width="41" height="41" viewBox="0 0 41 41" fill="none" xmlns="http://www.w3.org/2000/svg">
<circle cx="20.5" cy="20.5" r="20.25" fill="#F1F1F1" stroke="#E9E9E9" stroke-width="0.5"/>
<path d="M13.5151 14.8057C13.9082 13.3763 14.6592 12.2173 15.7682 11.3288C16.8773 10.4403 18.2547 9.95495 19.9007 9.87265C20.9873 9.81832 22.0376 9.99809 23.0515 10.412C24.0807 10.8091 24.9288 11.4315 25.596 12.2792C26.2783 13.1102 26.649 14.1169 26.7082 15.2995C26.7737 16.6098 26.5096 17.7364 25.916 18.6793C25.3223 19.6221 24.3863 20.4458 23.1079 21.1506C22.4375 21.5205 21.9893 21.8473 21.7632 22.1309C21.5362 22.3986 21.4256 22.7486 21.4312 23.1808L21.4563 24.1648L17.9567 24.3398L17.8632 22.9507C17.8113 22.2324 17.8536 21.6376 17.9903 21.1661C18.1261 20.6788 18.4002 20.2325 18.8124 19.8274C19.2407 19.4215 19.8683 18.9977 20.6953 18.5558C21.5215 18.098 22.1075 17.6441 22.4535 17.1943C22.8146 16.7277 22.9784 16.1588 22.9449 15.4876C22.9081 14.7526 22.6161 14.1984 22.0688 13.8253C21.5207 13.4362 20.8551 13.2612 20.0721 13.3004C19.2571 13.3411 18.6191 13.5572 18.1581 13.9488C17.697 14.3403 17.3267 14.9435 17.047 15.7585L13.5151 14.8057ZM20.0409 30.9399C19.4177 30.9711 18.8712 30.7741 18.4014 30.3491C17.9483 29.9392 17.7062 29.4226 17.6751 28.7994C17.6439 28.1762 17.8333 27.6381 18.2432 27.185C18.6682 26.7152 19.1924 26.4647 19.8156 26.4336C20.4388 26.4024 20.9773 26.5998 21.4312 27.0256C21.9002 27.4347 22.1503 27.9509 22.1814 28.5741C22.2126 29.1973 22.0152 29.7358 21.5894 30.1897C21.1803 30.6587 20.6641 30.9088 20.0409 30.9399Z" fill="#9B9B9B"/>
</svg>
