<svg width="127" height="26" viewBox="0 0 127 26" fill="none" xmlns="http://www.w3.org/2000/svg">
<g id="&#236;&#158;&#144;&#236;&#130;&#176; 9 1" clip-path="url(#clip0_333_978)">
<g id="&#235;&#160;&#136;&#236;&#157;&#180;&#236;&#150;&#180; 1">
<g id="Group">
<g id="Group_2">
<path id="Vector" d="M25.025 5.96216H20.7017V26.2227H25.025V5.96216Z" fill="#424448"/>
<path id="Vector_2" d="M30.6173 18.4014H20.7017V22.7247H30.6173V18.4014Z" fill="#424448"/>
<g id="Group_3">
<path id="Vector_3" d="M4.32331 5.96216H0V26.2227H4.32331V5.96216Z" fill="#424448"/>
<path id="Vector_4" d="M18.1054 21.8994H0V26.2227H18.1054V21.8994Z" fill="#424448"/>
<path id="Vector_5" d="M18.1054 5.96216H0V10.2855H18.1054V5.96216Z" fill="#424448"/>
<path id="Vector_6" d="M18.1054 13.9315H0V18.2548H18.1054V13.9315Z" fill="#424448"/>
</g>
</g>
<path id="Vector_7" d="M101.945 3.80115H97.6221V26.2241H101.945V3.80115Z" fill="#424448"/>
<path id="Vector_8" d="M82.7794 13.9315H78.4561V26.2242H82.7794V13.9315Z" fill="#424448"/>
<path id="Vector_9" d="M94.3995 5.97375H90.0762V18.2664H94.3995V5.97375Z" fill="#424448"/>
<path id="Vector_10" d="M94.3991 21.8994H78.4561V26.2227H94.3991V21.8994Z" fill="#424448"/>
<path id="Vector_11" d="M94.3991 3.80115H78.4561V8.12446H94.3991V3.80115Z" fill="#424448"/>
<path id="Vector_12" d="M94.3991 13.9315H78.4561V18.2548H94.3991V13.9315Z" fill="#424448"/>
<g id="Group_4">
<path id="Vector_13" d="M125.988 21.8994H105.494V26.2227H125.988V21.8994Z" fill="#424448"/>
<path id="Vector_14" d="M125.988 3.8114H105.494V8.13471H125.988V3.8114Z" fill="#424448"/>
<path id="Vector_15" d="M109.817 5.96216H105.494V19.257H109.817V5.96216Z" fill="#424448"/>
<path id="Vector_16" d="M125.988 5.96216H121.665V19.257H125.988V5.96216Z" fill="#424448"/>
</g>
<g id="Group_5">
<path id="Vector_17" d="M74.9074 21.8994H55.707V26.2227H74.9074V21.8994Z" fill="#424448"/>
<path id="Vector_18" d="M74.9074 0H55.707V4.32331H74.9074V0Z" fill="#424448"/>
<path id="Vector_19" d="M74.9074 11.289V6.9657H55.707V8.93084V11.289V14.9336V19.2584H60.2914H74.9074V14.9336H60.2914V11.289H74.9074Z" fill="#424448"/>
</g>
<g id="Group_6">
<path id="Vector_20" d="M52.1568 0H47.8335V26.2241H52.1568V0Z" fill="#424448"/>
<path id="Vector_21" d="M50.5706 13.5834H34.4419V17.9067H50.5706V13.5834Z" fill="#424448"/>
<path id="Vector_22" d="M52.1238 21.8994H35.9951V26.2227H52.1238V21.8994Z" fill="#424448"/>
<path id="Vector_23" d="M38.4547 13.7024H34.1313V26.2242H38.4547V13.7024Z" fill="#424448"/>
<path id="Vector_24" d="M38.6272 0H36.5417C32.2778 0 28.8203 3.45749 28.8203 7.72279V8.5277C28.8203 12.793 32.2778 16.2505 36.5431 16.2505H38.6286C42.8939 16.2505 46.3514 12.793 46.3514 8.5277V7.72279C46.35 3.45749 42.8925 0 38.6272 0ZM42.0267 8.33336C42.0267 10.4972 40.2732 12.2506 38.1094 12.2506H37.0623C34.8985 12.2506 33.1451 10.4972 33.1451 8.33336V7.91423C33.1451 5.7504 34.8985 3.997 37.0623 3.997H38.1094C40.2732 3.997 42.0267 5.7504 42.0267 7.91423V8.33336Z" fill="#424448"/>
</g>
</g>
</g>
</g>
<defs>
<clipPath id="clip0_333_978">
<rect width="126.414" height="26" fill="white"/>
</clipPath>
</defs>
</svg>
