<svg width="84" height="28" viewBox="0 0 84 28" fill="none" xmlns="http://www.w3.org/2000/svg">
<rect x="83.875" y="0.125" width="27.75" height="27.75" transform="rotate(90 83.875 0.125)" fill="#F6F6F6" stroke="#DFDFDF" stroke-width="0.25"/>
<rect x="27.875" y="0.125" width="27.75" height="27.75" transform="rotate(90 27.875 0.125)" fill="#F6F6F6" stroke="#DFDFDF" stroke-width="0.25"/>
<rect x="55.875" y="0.125" width="27.75" height="27.75" transform="rotate(90 55.875 0.125)" fill="#F6F6F6" stroke="#DFDFDF" stroke-width="0.25"/>
<path d="M47.2822 9.03125C47.2822 9.95117 47.2705 10.748 47.2471 11.4219C47.2295 12.0957 47.1797 12.875 47.0977 13.7598C47.0156 14.6387 46.8838 15.5996 46.7021 16.6426L44.9971 16.4844C45.1904 15.5117 45.334 14.5918 45.4277 13.7246C45.5215 12.8574 45.5771 12.0869 45.5947 11.4131C45.6182 10.7334 45.6299 9.93945 45.6299 9.03125V8.71484H36.3486V7.34375H47.2822V9.03125ZM49.1631 19.2617H34.8018V17.873H49.1631V19.2617Z" fill="#383838"/>
<path d="M75.8623 17.2051H74.1924V5.76172H75.8623V17.2051ZM76.3369 21.1602H65.5615V16.0449H67.249V19.8066H76.3369V21.1602ZM67.3193 6.81641C68.1045 6.81641 68.8135 6.9834 69.4463 7.31738C70.085 7.65137 70.5859 8.11426 70.9492 8.70605C71.3184 9.29785 71.5029 9.96875 71.5029 10.7188C71.5029 11.4805 71.3184 12.1602 70.9492 12.7578C70.5859 13.3496 70.085 13.8125 69.4463 14.1465C68.8135 14.4746 68.1045 14.6387 67.3193 14.6387C66.5342 14.6387 65.8223 14.4746 65.1836 14.1465C64.5449 13.8125 64.041 13.3467 63.6719 12.749C63.3027 12.1514 63.1182 11.4746 63.1182 10.7188C63.1182 9.96875 63.3027 9.29785 63.6719 8.70605C64.041 8.11426 64.5449 7.65137 65.1836 7.31738C65.8223 6.9834 66.5342 6.81641 67.3193 6.81641ZM67.3193 8.27539C66.833 8.27539 66.3936 8.38086 66.001 8.5918C65.6143 8.79688 65.3096 9.08398 65.0869 9.45312C64.8643 9.82227 64.7529 10.2441 64.7529 10.7188C64.7529 11.2051 64.8613 11.6357 65.0781 12.0107C65.3008 12.3799 65.6055 12.667 65.9922 12.8721C66.3848 13.0771 66.8271 13.1797 67.3193 13.1797C67.7998 13.1797 68.2334 13.0771 68.6201 12.8721C69.0068 12.667 69.3115 12.377 69.5342 12.002C69.7568 11.627 69.8682 11.1992 69.8682 10.7188C69.8682 10.25 69.7568 9.83105 69.5342 9.46191C69.3115 9.08691 69.0039 8.79688 68.6113 8.5918C68.2246 8.38086 67.7939 8.27539 67.3193 8.27539Z" fill="#383838"/>
<path d="M21.2158 19.6133H6.80176V18.207H13.1475V15.4473H8.55957V10.4375H17.8057V8.22266H8.52441V6.85156H19.458V11.7734H10.2119V14.0762H19.8271V15.4473H14.7998V18.207H21.2158V19.6133Z" fill="#383838"/>
</svg>
