<svg width="140" height="28" viewBox="0 0 140 28" fill="none" xmlns="http://www.w3.org/2000/svg">
<rect x="83.875" y="0.125" width="27.75" height="27.75" transform="rotate(90 83.875 0.125)" fill="#F6F6F6" stroke="#DFDFDF" stroke-width="0.25"/>
<rect x="111.875" y="0.125" width="27.75" height="27.75" transform="rotate(90 111.875 0.125)" fill="#F6F6F6" stroke="#DFDFDF" stroke-width="0.25"/>
<rect x="139.875" y="0.125" width="27.75" height="27.75" transform="rotate(90 139.875 0.125)" fill="#F6F6F6" stroke="#DFDFDF" stroke-width="0.25"/>
<rect x="27.875" y="0.125" width="27.75" height="27.75" transform="rotate(90 27.875 0.125)" fill="#F6F6F6" stroke="#DFDFDF" stroke-width="0.25"/>
<rect x="55.875" y="0.125" width="27.75" height="27.75" transform="rotate(90 55.875 0.125)" fill="#F6F6F6" stroke="#DFDFDF" stroke-width="0.25"/>
<path d="M75.8975 21.4941H74.21V5.74414H75.8975V21.4941ZM71.2041 7.43164C71.2041 9.86914 70.6211 12.0371 69.4551 13.9355C68.2949 15.8281 66.4229 17.3926 63.8389 18.6289L62.96 17.2754C65.0283 16.291 66.5957 15.0928 67.6621 13.6807C68.7344 12.2686 69.3525 10.6309 69.5166 8.76758H63.7158V7.43164H71.2041Z" fill="#383838"/>
<path d="M105.198 15.6934H90.7842V14.3398H97.165V12.8457H92.6299V8.83789H101.718V7.43164H92.5947V6.11328H103.388V10.0684H94.2822V11.5449H103.704V12.8457H98.8174V14.3398H105.198V15.6934ZM103.476 21.3711H101.788V18.1367H92.4014V16.8008H103.476V21.3711Z" fill="#383838"/>
<path d="M37.1924 12.9336C38.3643 12.9336 39.5068 12.8867 40.6201 12.793C41.7393 12.6934 42.8701 12.5234 44.0127 12.2832L44.2061 13.6543C42.9756 13.9062 41.7568 14.085 40.5498 14.1904C39.3486 14.29 38.1006 14.3398 36.8057 14.3398H35.5225V6.86914H37.1924V12.9336ZM47.1768 10.3496H49.4619V11.7734H47.1768V17.1172H45.5068V5.76172H47.1768V10.3496ZM47.7217 21.1602H37.2275V16.0098H38.915V19.8066H47.7217V21.1602Z" fill="#383838"/>
<path d="M133.181 13.5312H118.802V12.1953H133.181V13.5312ZM131.476 11.0527H120.683V6.20117H131.317V7.55469H122.353V9.7168H131.476V11.0527ZM131.353 18.5938H122.177V20H131.792V21.3184H120.542V17.3633H129.7V16.0625H120.524V14.7793H131.353V18.5938Z" fill="#383838"/>
<path d="M12.6025 10.3848C12.6025 11.2578 12.7783 12.1221 13.1299 12.9775C13.4873 13.833 13.9795 14.5977 14.6064 15.2715C15.2393 15.9395 15.9541 16.4434 16.751 16.7832L15.8369 18.084C14.917 17.6797 14.1025 17.0703 13.3936 16.2559C12.6846 15.4355 12.1455 14.4951 11.7764 13.4346C11.4072 14.5654 10.8652 15.5791 10.1504 16.4756C9.44141 17.3721 8.63574 18.043 7.7334 18.4883L6.7666 17.1699C7.54004 16.8066 8.24316 16.2646 8.87598 15.5439C9.50879 14.8174 10.0039 14 10.3613 13.0918C10.7246 12.1777 10.9092 11.2754 10.915 10.3848V8.71484H7.31152V7.32617H16.1885V8.71484H12.6025V10.3848ZM19.8447 21.4941H18.1748V5.74414H19.8447V21.4941Z" fill="#383838"/>
</svg>
