<svg width="1728" height="75" viewBox="0 0 1728 75" fill="none" xmlns="http://www.w3.org/2000/svg">
<rect x="0.25" y="0.25" width="1727.5" height="74.5" fill="#F6F6F6" stroke="#CCCCCC" stroke-width="0.5"/>
<path d="M110.09 35.2812C109.973 34.7129 109.738 34.2266 109.387 33.8223C109.041 33.4121 108.619 33.1016 108.121 32.8906C107.629 32.6797 107.102 32.5742 106.539 32.5742C105.76 32.5742 105.06 32.7705 104.438 33.1631C103.823 33.5557 103.337 34.1328 102.979 34.8945C102.622 35.6562 102.443 36.5703 102.443 37.6367C102.443 38.7031 102.622 39.6172 102.979 40.3789C103.337 41.1406 103.823 41.7178 104.438 42.1104C105.06 42.5029 105.76 42.6992 106.539 42.6992C107.102 42.6992 107.629 42.5967 108.121 42.3916C108.613 42.1807 109.032 41.873 109.378 41.4688C109.729 41.0586 109.967 40.5723 110.09 40.0098H111.672C111.52 40.8594 111.203 41.6006 110.723 42.2334C110.242 42.8604 109.639 43.3408 108.912 43.6748C108.191 44.0088 107.4 44.1758 106.539 44.1758C105.449 44.1758 104.479 43.9092 103.63 43.376C102.78 42.8428 102.115 42.084 101.635 41.0996C101.154 40.1094 100.914 38.9551 100.914 37.6367C100.914 36.3184 101.154 35.167 101.635 34.1826C102.115 33.1924 102.78 32.4307 103.63 31.8975C104.479 31.3643 105.449 31.0977 106.539 31.0977C107.395 31.0977 108.183 31.2646 108.903 31.5986C109.63 31.9326 110.233 32.416 110.714 33.0488C111.2 33.6758 111.52 34.4199 111.672 35.2812H110.09ZM117.596 44.1934C116.734 44.1934 115.973 43.9912 115.311 43.5869C114.654 43.1768 114.145 42.5996 113.781 41.8555C113.418 41.1113 113.236 40.25 113.236 39.2715C113.236 38.293 113.418 37.4316 113.781 36.6875C114.145 35.9375 114.654 35.3574 115.311 34.9473C115.973 34.5371 116.734 34.332 117.596 34.332C118.451 34.332 119.204 34.5371 119.854 34.9473C120.511 35.3574 121.018 35.9375 121.375 36.6875C121.738 37.4316 121.92 38.293 121.92 39.2715C121.92 40.25 121.738 41.1113 121.375 41.8555C121.018 42.5996 120.511 43.1768 119.854 43.5869C119.204 43.9912 118.451 44.1934 117.596 44.1934ZM117.596 42.8574C118.211 42.8574 118.729 42.6963 119.151 42.374C119.573 42.0459 119.887 41.6123 120.092 41.0732C120.303 40.5283 120.408 39.9277 120.408 39.2715C120.408 38.6152 120.303 38.0146 120.092 37.4697C119.887 36.9248 119.573 36.4883 119.151 36.1602C118.729 35.832 118.211 35.668 117.596 35.668C116.969 35.668 116.441 35.832 116.014 36.1602C115.592 36.4883 115.275 36.9248 115.064 37.4697C114.854 38.0146 114.748 38.6152 114.748 39.2715C114.748 39.9277 114.854 40.5283 115.064 41.0732C115.275 41.6123 115.592 42.0459 116.014 42.374C116.441 42.6963 116.969 42.8574 117.596 42.8574ZM123.906 34.4551H125.365V35.9668H125.541C125.729 35.6621 125.91 35.4072 126.086 35.2021C126.262 34.9912 126.534 34.7949 126.903 34.6133C127.272 34.4258 127.738 34.332 128.301 34.332C129.098 34.332 129.801 34.5342 130.41 34.9385C131.025 35.3369 131.503 35.9082 131.843 36.6523C132.188 37.3965 132.361 38.2637 132.361 39.2539C132.361 40.2441 132.188 41.1143 131.843 41.8643C131.503 42.6084 131.025 43.1826 130.41 43.5869C129.801 43.9912 129.104 44.1934 128.318 44.1934C127.762 44.1934 127.296 44.1025 126.921 43.9209C126.552 43.7334 126.273 43.5312 126.086 43.3145C125.898 43.0918 125.717 42.834 125.541 42.541H125.418V47.5859H123.906V34.4551ZM125.383 39.2188C125.383 39.9395 125.488 40.5723 125.699 41.1172C125.91 41.6621 126.221 42.0869 126.631 42.3916C127.041 42.6904 127.533 42.8398 128.107 42.8398C128.693 42.8398 129.191 42.6846 129.602 42.374C130.018 42.0576 130.328 41.627 130.533 41.082C130.744 40.5312 130.85 39.9102 130.85 39.2188C130.85 38.5449 130.744 37.9414 130.533 37.4082C130.328 36.875 130.021 36.4561 129.61 36.1514C129.2 35.8408 128.699 35.6855 128.107 35.6855C127.521 35.6855 127.023 35.832 126.613 36.125C126.209 36.418 125.901 36.8311 125.69 37.3643C125.485 37.8916 125.383 38.5098 125.383 39.2188ZM134.945 47.5859C134.641 47.5859 134.359 47.5742 134.102 47.5508V46.1973C134.312 46.2207 134.559 46.2324 134.84 46.2324C135.092 46.2324 135.303 46.2061 135.473 46.1533C135.643 46.1006 135.812 45.9688 135.982 45.7578C136.152 45.5527 136.316 45.2305 136.475 44.791L136.756 44.0703L133.223 34.4551H134.875L137.477 42.0312H137.582L140.184 34.4551H141.836L137.793 45.3711C137.512 46.1152 137.137 46.6689 136.668 47.0322C136.199 47.4014 135.625 47.5859 134.945 47.5859ZM143.506 34.4551H144.965V35.9141H145.07C145.246 35.4277 145.56 35.0381 146.011 34.7451C146.462 34.4463 146.969 34.2969 147.531 34.2969C147.824 34.2969 148.088 34.3086 148.322 34.332V35.8613C148.258 35.8379 148.132 35.8145 147.944 35.791C147.763 35.7676 147.584 35.7559 147.408 35.7559C146.957 35.7559 146.55 35.8525 146.187 36.0459C145.823 36.2393 145.536 36.5059 145.325 36.8457C145.12 37.1855 145.018 37.5664 145.018 37.9883V44H143.506V34.4551ZM149.799 34.4551H151.311V44H149.799V34.4551ZM150.555 32.873C150.262 32.873 150.013 32.7764 149.808 32.583C149.603 32.3896 149.5 32.1523 149.5 31.8711C149.5 31.5898 149.603 31.3525 149.808 31.1592C150.013 30.9658 150.262 30.8691 150.555 30.8691C150.848 30.8691 151.1 30.9658 151.311 31.1592C151.521 31.3525 151.627 31.5898 151.627 31.8711C151.627 32.1523 151.521 32.3896 151.311 32.583C151.1 32.7764 150.848 32.873 150.555 32.873ZM157.586 47.7793C156.818 47.7793 156.139 47.6709 155.547 47.4541C154.961 47.2373 154.495 46.9209 154.149 46.5049C153.804 46.0889 153.602 45.5879 153.543 45.002H155.125C155.23 45.4824 155.494 45.8457 155.916 46.0918C156.344 46.3379 156.9 46.4609 157.586 46.4609C158.43 46.4609 159.08 46.2734 159.537 45.8984C159.994 45.5234 160.223 44.9492 160.223 44.1758V42.2422H160.1C159.93 42.5293 159.751 42.7812 159.563 42.998C159.376 43.2148 159.095 43.4141 158.72 43.5957C158.351 43.7715 157.885 43.8594 157.322 43.8594C156.543 43.8594 155.846 43.6689 155.23 43.2881C154.615 42.9072 154.132 42.3594 153.78 41.6445C153.435 40.9238 153.262 40.0742 153.262 39.0957C153.262 38.1348 153.435 37.2939 153.78 36.5732C154.126 35.8525 154.606 35.2988 155.222 34.9121C155.837 34.5254 156.543 34.332 157.34 34.332C157.896 34.332 158.359 34.4229 158.729 34.6045C159.104 34.7861 159.37 34.9736 159.528 35.167C159.692 35.3545 159.895 35.6211 160.135 35.9668H160.258V34.4551H161.734V44.2637C161.734 45.0547 161.553 45.7109 161.189 46.2324C160.832 46.7598 160.343 47.1494 159.722 47.4014C159.101 47.6533 158.389 47.7793 157.586 47.7793ZM157.533 42.5059C158.4 42.5059 159.071 42.2129 159.546 41.627C160.021 41.0352 160.258 40.209 160.258 39.1484C160.258 38.4629 160.152 37.8594 159.941 37.3379C159.73 36.8164 159.42 36.4121 159.01 36.125C158.605 35.832 158.113 35.6855 157.533 35.6855C156.941 35.6855 156.44 35.8379 156.03 36.1426C155.62 36.4473 155.31 36.8633 155.099 37.3906C154.894 37.9121 154.791 38.498 154.791 39.1484C154.791 39.8164 154.894 40.4023 155.099 40.9062C155.31 41.4102 155.62 41.8027 156.03 42.084C156.44 42.3652 156.941 42.5059 157.533 42.5059ZM165.654 44H164.143V31.2734H165.654V35.9492H165.777C166.258 34.8711 167.195 34.332 168.59 34.332C169.598 34.332 170.392 34.6367 170.972 35.2461C171.552 35.8496 171.842 36.7461 171.842 37.9355V44H170.33V38.041C170.33 37.2969 170.134 36.7197 169.741 36.3096C169.354 35.8936 168.818 35.6855 168.133 35.6855C167.652 35.6855 167.225 35.7881 166.85 35.9932C166.48 36.1924 166.188 36.4883 165.971 36.8809C165.76 37.2676 165.654 37.7305 165.654 38.2695V44ZM178.434 35.7207H176.43V41.2578C176.43 41.8203 176.541 42.1982 176.764 42.3916C176.986 42.585 177.291 42.6816 177.678 42.6816C177.971 42.6816 178.27 42.6699 178.574 42.6465V44.0527C178.27 44.0996 177.918 44.123 177.52 44.123C177.074 44.123 176.652 44.0322 176.254 43.8506C175.855 43.6631 175.53 43.3818 175.278 43.0068C175.026 42.6318 174.9 42.1777 174.9 41.6445V35.7207H173.459V34.4551H174.9V32.1699H176.43V34.4551H178.434V35.7207ZM193.175 40.58C192.311 40.58 191.639 40.316 191.159 39.788C190.679 39.26 190.439 38.528 190.439 37.592C190.439 36.632 190.685 35.894 191.177 35.378C191.681 34.85 192.371 34.586 193.247 34.586C193.535 34.586 193.811 34.616 194.075 34.676C194.351 34.724 194.621 34.808 194.885 34.928L194.579 35.828C194.351 35.732 194.123 35.66 193.895 35.612C193.679 35.564 193.457 35.54 193.229 35.54C192.701 35.54 192.299 35.714 192.023 36.062C191.759 36.398 191.627 36.908 191.627 37.592C191.627 38.24 191.759 38.744 192.023 39.104C192.287 39.452 192.671 39.626 193.175 39.626C193.415 39.626 193.667 39.596 193.931 39.536C194.207 39.464 194.495 39.368 194.795 39.248V40.22C194.507 40.34 194.231 40.43 193.967 40.49C193.703 40.55 193.439 40.58 193.175 40.58ZM192.689 44.99C191.669 44.99 190.709 44.798 189.809 44.414C188.909 44.03 188.117 43.502 187.433 42.83C186.761 42.146 186.233 41.354 185.849 40.454C185.465 39.554 185.273 38.594 185.273 37.574C185.273 36.542 185.465 35.582 185.849 34.694C186.233 33.794 186.761 33.008 187.433 32.336C188.117 31.652 188.909 31.118 189.809 30.734C190.709 30.35 191.669 30.158 192.689 30.158C193.721 30.158 194.681 30.35 195.569 30.734C196.469 31.118 197.255 31.652 197.927 32.336C198.611 33.008 199.145 33.794 199.529 34.694C199.913 35.582 200.105 36.542 200.105 37.574C200.105 38.594 199.913 39.554 199.529 40.454C199.145 41.354 198.611 42.146 197.927 42.83C197.255 43.502 196.469 44.03 195.569 44.414C194.681 44.798 193.721 44.99 192.689 44.99ZM192.689 43.982C193.577 43.982 194.405 43.82 195.173 43.496C195.953 43.16 196.637 42.698 197.225 42.11C197.813 41.522 198.269 40.844 198.593 40.076C198.929 39.296 199.097 38.462 199.097 37.574C199.097 36.686 198.929 35.858 198.593 35.09C198.269 34.31 197.813 33.626 197.225 33.038C196.637 32.45 195.953 31.994 195.173 31.67C194.405 31.334 193.577 31.166 192.689 31.166C191.801 31.166 190.967 31.334 190.187 31.67C189.419 31.994 188.741 32.45 188.153 33.038C187.565 33.626 187.103 34.31 186.767 35.09C186.443 35.858 186.281 36.686 186.281 37.574C186.281 38.462 186.443 39.296 186.767 40.076C187.103 40.844 187.565 41.522 188.153 42.11C188.741 42.698 189.419 43.16 190.187 43.496C190.967 43.82 191.801 43.982 192.689 43.982ZM202.393 31.2734H211.99V32.6797H208V44H206.4V32.6797H202.393V31.2734ZM213.906 34.4551H215.418V44H213.906V34.4551ZM214.662 32.873C214.369 32.873 214.12 32.7764 213.915 32.583C213.71 32.3896 213.607 32.1523 213.607 31.8711C213.607 31.5898 213.71 31.3525 213.915 31.1592C214.12 30.9658 214.369 30.8691 214.662 30.8691C214.955 30.8691 215.207 30.9658 215.418 31.1592C215.629 31.3525 215.734 31.5898 215.734 31.8711C215.734 32.1523 215.629 32.3896 215.418 32.583C215.207 32.7764 214.955 32.873 214.662 32.873ZM217.826 34.4551H219.285V35.9492H219.408C219.613 35.4336 219.936 35.0352 220.375 34.7539C220.82 34.4727 221.354 34.332 221.975 34.332C222.584 34.332 223.103 34.4727 223.53 34.7539C223.958 35.0293 224.289 35.4277 224.523 35.9492H224.629C224.881 35.4453 225.253 35.0498 225.745 34.7627C226.237 34.4756 226.82 34.332 227.494 34.332C228.074 34.332 228.581 34.4521 229.015 34.6924C229.454 34.9326 229.797 35.2988 230.043 35.791C230.289 36.2773 230.412 36.8867 230.412 37.6191V44H228.9V37.6367C228.9 36.9746 228.719 36.4854 228.355 36.1689C227.992 35.8467 227.529 35.6855 226.967 35.6855C226.533 35.6855 226.158 35.7764 225.842 35.958C225.525 36.1396 225.285 36.3887 225.121 36.7051C224.957 37.0215 224.875 37.3848 224.875 37.7949V44H223.346V37.4785C223.346 37.127 223.267 36.8164 223.108 36.5469C222.95 36.2715 222.728 36.0605 222.44 35.9141C222.159 35.7617 221.84 35.6855 221.482 35.6855C221.102 35.6855 220.747 35.7881 220.419 35.9932C220.091 36.1924 219.827 36.4707 219.628 36.8281C219.435 37.1855 219.338 37.5898 219.338 38.041V44H217.826V34.4551ZM236.846 44.1934C235.938 44.1934 235.146 43.9912 234.473 43.5869C233.799 43.1826 233.28 42.6113 232.917 41.873C232.56 41.1348 232.381 40.2793 232.381 39.3066C232.381 38.334 232.56 37.4727 232.917 36.7227C233.28 35.9668 233.787 35.3809 234.438 34.9648C235.094 34.543 235.85 34.332 236.705 34.332C237.426 34.332 238.097 34.4932 238.718 34.8154C239.339 35.1318 239.843 35.6475 240.229 36.3623C240.622 37.0713 240.818 37.9824 240.818 39.0957V39.7285H233.893C233.916 40.3906 234.054 40.9561 234.306 41.4248C234.558 41.8936 234.9 42.251 235.334 42.4971C235.773 42.7373 236.277 42.8574 236.846 42.8574C237.385 42.8574 237.839 42.7578 238.208 42.5586C238.583 42.3535 238.867 42.0898 239.061 41.7676H240.678C240.525 42.248 240.271 42.6729 239.913 43.042C239.562 43.4053 239.122 43.6895 238.595 43.8945C238.073 44.0938 237.49 44.1934 236.846 44.1934ZM239.289 38.4453C239.289 37.9121 239.181 37.4375 238.964 37.0215C238.753 36.5996 238.451 36.2686 238.059 36.0283C237.666 35.7881 237.215 35.668 236.705 35.668C236.172 35.668 235.697 35.7939 235.281 36.0459C234.871 36.2979 234.546 36.6377 234.306 37.0654C234.071 37.4873 233.937 37.9473 233.901 38.4453H239.289ZM241.381 31.2734H250.979V32.6797H246.988V44H245.389V32.6797H241.381V31.2734ZM251.893 34.4551H253.352V35.9141H253.457C253.633 35.4277 253.946 35.0381 254.397 34.7451C254.849 34.4463 255.355 34.2969 255.918 34.2969C256.211 34.2969 256.475 34.3086 256.709 34.332V35.8613C256.645 35.8379 256.519 35.8145 256.331 35.791C256.149 35.7676 255.971 35.7559 255.795 35.7559C255.344 35.7559 254.937 35.8525 254.573 36.0459C254.21 36.2393 253.923 36.5059 253.712 36.8457C253.507 37.1855 253.404 37.5664 253.404 37.9883V44H251.893V34.4551ZM258.186 34.4551H259.697V44H258.186V34.4551ZM258.941 32.873C258.648 32.873 258.399 32.7764 258.194 32.583C257.989 32.3896 257.887 32.1523 257.887 31.8711C257.887 31.5898 257.989 31.3525 258.194 31.1592C258.399 30.9658 258.648 30.8691 258.941 30.8691C259.234 30.8691 259.486 30.9658 259.697 31.1592C259.908 31.3525 260.014 31.5898 260.014 31.8711C260.014 32.1523 259.908 32.3896 259.697 32.583C259.486 32.7764 259.234 32.873 258.941 32.873ZM267.414 36.9336C267.303 36.5176 267.086 36.1953 266.764 35.9668C266.447 35.7324 266.02 35.6152 265.48 35.6152C265.094 35.6152 264.745 35.6797 264.435 35.8086C264.13 35.9316 263.89 36.1045 263.714 36.3271C263.544 36.5439 263.459 36.7871 263.459 37.0566C263.459 37.373 263.591 37.6426 263.854 37.8652C264.124 38.0879 264.537 38.2637 265.094 38.3926L266.518 38.7441C267.373 38.9492 268.012 39.2656 268.434 39.6934C268.855 40.1152 269.066 40.6602 269.066 41.3281C269.066 41.8848 268.917 42.3799 268.618 42.8135C268.325 43.2412 267.897 43.5781 267.335 43.8242C266.772 44.0703 266.102 44.1934 265.322 44.1934C264.25 44.1934 263.4 43.9648 262.773 43.5078C262.146 43.0449 261.771 42.377 261.648 41.5039H263.23C263.318 41.9668 263.532 42.3125 263.872 42.541C264.212 42.7637 264.684 42.875 265.287 42.875C265.967 42.875 266.506 42.7432 266.904 42.4795C267.303 42.2158 267.502 41.8613 267.502 41.416C267.502 41.0762 267.376 40.7949 267.124 40.5723C266.872 40.3438 266.477 40.168 265.938 40.0449L264.496 39.7109C263.664 39.5176 263.031 39.2012 262.598 38.7617C262.164 38.3223 261.947 37.7832 261.947 37.1445C261.947 36.6055 262.094 36.1221 262.387 35.6943C262.686 35.2666 263.102 34.9326 263.635 34.6924C264.174 34.4521 264.789 34.332 265.48 34.332C266.125 34.332 266.693 34.4404 267.186 34.6572C267.678 34.874 268.067 35.1787 268.354 35.5713C268.647 35.9639 268.826 36.418 268.891 36.9336H267.414ZM272.107 44.1055C271.902 44.1055 271.712 44.0557 271.536 43.9561C271.366 43.8506 271.229 43.71 271.123 43.5342C271.023 43.3584 270.977 43.168 270.982 42.9629C270.977 42.7637 271.023 42.5791 271.123 42.4092C271.229 42.2334 271.366 42.0957 271.536 41.9961C271.712 41.8906 271.902 41.8379 272.107 41.8379C272.307 41.8379 272.491 41.8906 272.661 41.9961C272.837 42.0957 272.975 42.2334 273.074 42.4092C273.18 42.5791 273.232 42.7637 273.232 42.9629C273.232 43.168 273.18 43.3584 273.074 43.5342C272.975 43.71 272.837 43.8506 272.661 43.9561C272.491 44.0557 272.307 44.1055 272.107 44.1055ZM279.191 44L283.85 31.2734H285.52L290.178 44H288.508L287.233 40.4141H282.118L280.844 44H279.191ZM286.75 39.0254L284.729 33.3301H284.623L282.602 39.0254H286.75ZM293.219 44H291.707V31.2734H293.219V44ZM297.139 44H295.627V31.2734H297.139V44ZM304.064 34.4551H305.523V35.9141H305.629C305.805 35.4277 306.118 35.0381 306.569 34.7451C307.021 34.4463 307.527 34.2969 308.09 34.2969C308.383 34.2969 308.646 34.3086 308.881 34.332V35.8613C308.816 35.8379 308.69 35.8145 308.503 35.791C308.321 35.7676 308.143 35.7559 307.967 35.7559C307.516 35.7559 307.108 35.8525 306.745 36.0459C306.382 36.2393 306.095 36.5059 305.884 36.8457C305.679 37.1855 305.576 37.5664 305.576 37.9883V44H304.064V34.4551ZM310.357 34.4551H311.869V44H310.357V34.4551ZM311.113 32.873C310.82 32.873 310.571 32.7764 310.366 32.583C310.161 32.3896 310.059 32.1523 310.059 31.8711C310.059 31.5898 310.161 31.3525 310.366 31.1592C310.571 30.9658 310.82 30.8691 311.113 30.8691C311.406 30.8691 311.658 30.9658 311.869 31.1592C312.08 31.3525 312.186 31.5898 312.186 31.8711C312.186 32.1523 312.08 32.3896 311.869 32.583C311.658 32.7764 311.406 32.873 311.113 32.873ZM318.145 47.7793C317.377 47.7793 316.697 47.6709 316.105 47.4541C315.52 47.2373 315.054 46.9209 314.708 46.5049C314.362 46.0889 314.16 45.5879 314.102 45.002H315.684C315.789 45.4824 316.053 45.8457 316.475 46.0918C316.902 46.3379 317.459 46.4609 318.145 46.4609C318.988 46.4609 319.639 46.2734 320.096 45.8984C320.553 45.5234 320.781 44.9492 320.781 44.1758V42.2422H320.658C320.488 42.5293 320.31 42.7812 320.122 42.998C319.935 43.2148 319.653 43.4141 319.278 43.5957C318.909 43.7715 318.443 43.8594 317.881 43.8594C317.102 43.8594 316.404 43.6689 315.789 43.2881C315.174 42.9072 314.69 42.3594 314.339 41.6445C313.993 40.9238 313.82 40.0742 313.82 39.0957C313.82 38.1348 313.993 37.2939 314.339 36.5732C314.685 35.8525 315.165 35.2988 315.78 34.9121C316.396 34.5254 317.102 34.332 317.898 34.332C318.455 34.332 318.918 34.4229 319.287 34.6045C319.662 34.7861 319.929 34.9736 320.087 35.167C320.251 35.3545 320.453 35.6211 320.693 35.9668H320.816V34.4551H322.293V44.2637C322.293 45.0547 322.111 45.7109 321.748 46.2324C321.391 46.7598 320.901 47.1494 320.28 47.4014C319.659 47.6533 318.947 47.7793 318.145 47.7793ZM318.092 42.5059C318.959 42.5059 319.63 42.2129 320.104 41.627C320.579 41.0352 320.816 40.209 320.816 39.1484C320.816 38.4629 320.711 37.8594 320.5 37.3379C320.289 36.8164 319.979 36.4121 319.568 36.125C319.164 35.832 318.672 35.6855 318.092 35.6855C317.5 35.6855 316.999 35.8379 316.589 36.1426C316.179 36.4473 315.868 36.8633 315.657 37.3906C315.452 37.9121 315.35 38.498 315.35 39.1484C315.35 39.8164 315.452 40.4023 315.657 40.9062C315.868 41.4102 316.179 41.8027 316.589 42.084C316.999 42.3652 317.5 42.5059 318.092 42.5059ZM326.213 44H324.701V31.2734H326.213V35.9492H326.336C326.816 34.8711 327.754 34.332 329.148 34.332C330.156 34.332 330.95 34.6367 331.53 35.2461C332.11 35.8496 332.4 36.7461 332.4 37.9355V44H330.889V38.041C330.889 37.2969 330.692 36.7197 330.3 36.3096C329.913 35.8936 329.377 35.6855 328.691 35.6855C328.211 35.6855 327.783 35.7881 327.408 35.9932C327.039 36.1924 326.746 36.4883 326.529 36.8809C326.318 37.2676 326.213 37.7305 326.213 38.2695V44ZM338.992 35.7207H336.988V41.2578C336.988 41.8203 337.1 42.1982 337.322 42.3916C337.545 42.585 337.85 42.6816 338.236 42.6816C338.529 42.6816 338.828 42.6699 339.133 42.6465V44.0527C338.828 44.0996 338.477 44.123 338.078 44.123C337.633 44.123 337.211 44.0322 336.812 43.8506C336.414 43.6631 336.089 43.3818 335.837 43.0068C335.585 42.6318 335.459 42.1777 335.459 41.6445V35.7207H334.018V34.4551H335.459V32.1699H336.988V34.4551H338.992V35.7207ZM345.461 34.4551H346.92V35.9141H347.025C347.201 35.4277 347.515 35.0381 347.966 34.7451C348.417 34.4463 348.924 34.2969 349.486 34.2969C349.779 34.2969 350.043 34.3086 350.277 34.332V35.8613C350.213 35.8379 350.087 35.8145 349.899 35.791C349.718 35.7676 349.539 35.7559 349.363 35.7559C348.912 35.7559 348.505 35.8525 348.142 36.0459C347.778 36.2393 347.491 36.5059 347.28 36.8457C347.075 37.1855 346.973 37.5664 346.973 37.9883V44H345.461V34.4551ZM355.445 44.1934C354.537 44.1934 353.746 43.9912 353.072 43.5869C352.398 43.1826 351.88 42.6113 351.517 41.873C351.159 41.1348 350.98 40.2793 350.98 39.3066C350.98 38.334 351.159 37.4727 351.517 36.7227C351.88 35.9668 352.387 35.3809 353.037 34.9648C353.693 34.543 354.449 34.332 355.305 34.332C356.025 34.332 356.696 34.4932 357.317 34.8154C357.938 35.1318 358.442 35.6475 358.829 36.3623C359.222 37.0713 359.418 37.9824 359.418 39.0957V39.7285H352.492C352.516 40.3906 352.653 40.9561 352.905 41.4248C353.157 41.8936 353.5 42.251 353.934 42.4971C354.373 42.7373 354.877 42.8574 355.445 42.8574C355.984 42.8574 356.438 42.7578 356.808 42.5586C357.183 42.3535 357.467 42.0898 357.66 41.7676H359.277C359.125 42.248 358.87 42.6729 358.513 43.042C358.161 43.4053 357.722 43.6895 357.194 43.8945C356.673 44.0938 356.09 44.1934 355.445 44.1934ZM357.889 38.4453C357.889 37.9121 357.78 37.4375 357.563 37.0215C357.353 36.5996 357.051 36.2686 356.658 36.0283C356.266 35.7881 355.814 35.668 355.305 35.668C354.771 35.668 354.297 35.7939 353.881 36.0459C353.471 36.2979 353.146 36.6377 352.905 37.0654C352.671 37.4873 352.536 37.9473 352.501 38.4453H357.889ZM366.695 36.9336C366.584 36.5176 366.367 36.1953 366.045 35.9668C365.729 35.7324 365.301 35.6152 364.762 35.6152C364.375 35.6152 364.026 35.6797 363.716 35.8086C363.411 35.9316 363.171 36.1045 362.995 36.3271C362.825 36.5439 362.74 36.7871 362.74 37.0566C362.74 37.373 362.872 37.6426 363.136 37.8652C363.405 38.0879 363.818 38.2637 364.375 38.3926L365.799 38.7441C366.654 38.9492 367.293 39.2656 367.715 39.6934C368.137 40.1152 368.348 40.6602 368.348 41.3281C368.348 41.8848 368.198 42.3799 367.899 42.8135C367.606 43.2412 367.179 43.5781 366.616 43.8242C366.054 44.0703 365.383 44.1934 364.604 44.1934C363.531 44.1934 362.682 43.9648 362.055 43.5078C361.428 43.0449 361.053 42.377 360.93 41.5039H362.512C362.6 41.9668 362.813 42.3125 363.153 42.541C363.493 42.7637 363.965 42.875 364.568 42.875C365.248 42.875 365.787 42.7432 366.186 42.4795C366.584 42.2158 366.783 41.8613 366.783 41.416C366.783 41.0762 366.657 40.7949 366.405 40.5723C366.153 40.3438 365.758 40.168 365.219 40.0449L363.777 39.7109C362.945 39.5176 362.312 39.2012 361.879 38.7617C361.445 38.3223 361.229 37.7832 361.229 37.1445C361.229 36.6055 361.375 36.1221 361.668 35.6943C361.967 35.2666 362.383 34.9326 362.916 34.6924C363.455 34.4521 364.07 34.332 364.762 34.332C365.406 34.332 365.975 34.4404 366.467 34.6572C366.959 34.874 367.349 35.1787 367.636 35.5713C367.929 35.9639 368.107 36.418 368.172 36.9336H366.695ZM374.324 44.1934C373.416 44.1934 372.625 43.9912 371.951 43.5869C371.277 43.1826 370.759 42.6113 370.396 41.873C370.038 41.1348 369.859 40.2793 369.859 39.3066C369.859 38.334 370.038 37.4727 370.396 36.7227C370.759 35.9668 371.266 35.3809 371.916 34.9648C372.572 34.543 373.328 34.332 374.184 34.332C374.904 34.332 375.575 34.4932 376.196 34.8154C376.817 35.1318 377.321 35.6475 377.708 36.3623C378.101 37.0713 378.297 37.9824 378.297 39.0957V39.7285H371.371C371.395 40.3906 371.532 40.9561 371.784 41.4248C372.036 41.8936 372.379 42.251 372.812 42.4971C373.252 42.7373 373.756 42.8574 374.324 42.8574C374.863 42.8574 375.317 42.7578 375.687 42.5586C376.062 42.3535 376.346 42.0898 376.539 41.7676H378.156C378.004 42.248 377.749 42.6729 377.392 43.042C377.04 43.4053 376.601 43.6895 376.073 43.8945C375.552 44.0938 374.969 44.1934 374.324 44.1934ZM376.768 38.4453C376.768 37.9121 376.659 37.4375 376.442 37.0215C376.231 36.5996 375.93 36.2686 375.537 36.0283C375.145 35.7881 374.693 35.668 374.184 35.668C373.65 35.668 373.176 35.7939 372.76 36.0459C372.35 36.2979 372.024 36.6377 371.784 37.0654C371.55 37.4873 371.415 37.9473 371.38 38.4453H376.768ZM380.266 34.4551H381.725V35.9141H381.83C382.006 35.4277 382.319 35.0381 382.771 34.7451C383.222 34.4463 383.729 34.2969 384.291 34.2969C384.584 34.2969 384.848 34.3086 385.082 34.332V35.8613C385.018 35.8379 384.892 35.8145 384.704 35.791C384.522 35.7676 384.344 35.7559 384.168 35.7559C383.717 35.7559 383.31 35.8525 382.946 36.0459C382.583 36.2393 382.296 36.5059 382.085 36.8457C381.88 37.1855 381.777 37.5664 381.777 37.9883V44H380.266V34.4551ZM391.182 44H389.617L386.102 34.4551H387.754L390.355 42.0312H390.461L393.062 34.4551H394.715L391.182 44ZM400.041 44.1934C399.133 44.1934 398.342 43.9912 397.668 43.5869C396.994 43.1826 396.476 42.6113 396.112 41.873C395.755 41.1348 395.576 40.2793 395.576 39.3066C395.576 38.334 395.755 37.4727 396.112 36.7227C396.476 35.9668 396.982 35.3809 397.633 34.9648C398.289 34.543 399.045 34.332 399.9 34.332C400.621 34.332 401.292 34.4932 401.913 34.8154C402.534 35.1318 403.038 35.6475 403.425 36.3623C403.817 37.0713 404.014 37.9824 404.014 39.0957V39.7285H397.088C397.111 40.3906 397.249 40.9561 397.501 41.4248C397.753 41.8936 398.096 42.251 398.529 42.4971C398.969 42.7373 399.473 42.8574 400.041 42.8574C400.58 42.8574 401.034 42.7578 401.403 42.5586C401.778 42.3535 402.062 42.0898 402.256 41.7676H403.873C403.721 42.248 403.466 42.6729 403.108 43.042C402.757 43.4053 402.317 43.6895 401.79 43.8945C401.269 44.0938 400.686 44.1934 400.041 44.1934ZM402.484 38.4453C402.484 37.9121 402.376 37.4375 402.159 37.0215C401.948 36.5996 401.646 36.2686 401.254 36.0283C400.861 35.7881 400.41 35.668 399.9 35.668C399.367 35.668 398.893 35.7939 398.477 36.0459C398.066 36.2979 397.741 36.6377 397.501 37.0654C397.267 37.4873 397.132 37.9473 397.097 38.4453H402.484ZM409.586 44.1934C408.795 44.1934 408.092 43.9912 407.477 43.5869C406.867 43.1826 406.39 42.6084 406.044 41.8643C405.698 41.1143 405.525 40.2441 405.525 39.2539C405.525 38.2637 405.698 37.3965 406.044 36.6523C406.39 35.9082 406.87 35.3369 407.485 34.9385C408.101 34.5342 408.807 34.332 409.604 34.332C410.166 34.332 410.632 34.4258 411.001 34.6133C411.37 34.7949 411.643 34.9912 411.818 35.2021C411.994 35.4072 412.176 35.6621 412.363 35.9668H412.469V31.2734H413.998V44H412.521V42.541H412.363C412.164 42.8516 411.974 43.1123 411.792 43.3232C411.616 43.5342 411.344 43.7334 410.975 43.9209C410.605 44.1025 410.143 44.1934 409.586 44.1934ZM409.797 42.8398C410.365 42.8398 410.854 42.6904 411.265 42.3916C411.675 42.0869 411.985 41.6621 412.196 41.1172C412.413 40.5664 412.521 39.9336 412.521 39.2188C412.521 38.5098 412.416 37.8916 412.205 37.3643C412 36.8311 411.692 36.418 411.282 36.125C410.872 35.832 410.377 35.6855 409.797 35.6855C409.205 35.6855 408.704 35.8408 408.294 36.1514C407.884 36.4561 407.573 36.875 407.362 37.4082C407.157 37.9414 407.055 38.5449 407.055 39.2188C407.055 39.9102 407.157 40.5312 407.362 41.082C407.573 41.627 407.884 42.0576 408.294 42.374C408.71 42.6846 409.211 42.8398 409.797 42.8398ZM417.689 44.1055C417.484 44.1055 417.294 44.0557 417.118 43.9561C416.948 43.8506 416.811 43.71 416.705 43.5342C416.605 43.3584 416.559 43.168 416.564 42.9629C416.559 42.7637 416.605 42.5791 416.705 42.4092C416.811 42.2334 416.948 42.0957 417.118 41.9961C417.294 41.8906 417.484 41.8379 417.689 41.8379C417.889 41.8379 418.073 41.8906 418.243 41.9961C418.419 42.0957 418.557 42.2334 418.656 42.4092C418.762 42.5791 418.814 42.7637 418.814 42.9629C418.814 43.168 418.762 43.3584 418.656 43.5342C418.557 43.71 418.419 43.8506 418.243 43.9561C418.073 44.0557 417.889 44.1055 417.689 44.1055Z" fill="#909090"/>
</svg>
